<svg width="111" height="110" viewBox="0 0 111 110" fill="none" xmlns="http://www.w3.org/2000/svg">
<g filter="url(#filter0_d_1119_260)">
<g filter="url(#filter1_d_1119_260)">
<ellipse cx="55.2816" cy="47" rx="15.0121" ry="15" fill="white"/>
</g>
<path d="M48.9434 41.8333C48.9434 41.7007 48.9961 41.5735 49.0899 41.4798C49.1838 41.386 49.311 41.3333 49.4438 41.3333H49.8161C50.4499 41.3333 50.8302 41.7593 51.0471 42.1553C51.1918 42.4193 51.2966 42.7253 51.3787 43.0026C51.4009 43.0009 51.4231 43 51.4454 43H59.7841C60.3379 43 60.7382 43.5293 60.5861 44.062L59.3664 48.3346C59.2571 48.7179 59.0257 49.0551 58.7074 49.2952C58.3891 49.5353 58.0012 49.6652 57.6023 49.6653H53.6338C53.2318 49.6653 52.8409 49.5334 52.5213 49.2899C52.2016 49.0464 51.9708 48.7047 51.8644 48.3173L51.3573 46.4693L50.5166 43.6373L50.516 43.632C50.4119 43.254 50.3145 42.9 50.169 42.636C50.0296 42.3793 49.9175 42.3333 49.8167 42.3333H49.4438C49.311 42.3333 49.1838 42.2806 49.0899 42.1869C48.9961 42.0931 48.9434 41.9659 48.9434 41.8333ZM52.3281 46.2266L52.8292 48.0526C52.9292 48.414 53.2582 48.6653 53.6338 48.6653H57.6023C57.7836 48.6653 57.96 48.6063 58.1047 48.4972C58.2494 48.3881 58.3546 48.2348 58.4043 48.0606L59.5633 44H51.6689L52.3187 46.1913L52.3281 46.2266Z" fill="#151875"/>
<path d="M54.6146 51.6666C54.6146 52.0203 54.474 52.3594 54.2238 52.6095C53.9735 52.8595 53.6341 53 53.2802 53C52.9263 53 52.5869 52.8595 52.3366 52.6095C52.0864 52.3594 51.9458 52.0203 51.9458 51.6666C51.9458 51.313 52.0864 50.9739 52.3366 50.7238C52.5869 50.4738 52.9263 50.3333 53.2802 50.3333C53.6341 50.3333 53.9735 50.4738 54.2238 50.7238C54.474 50.9739 54.6146 51.313 54.6146 51.6666ZM53.6138 51.6666C53.6138 51.5782 53.5787 51.4935 53.5161 51.4309C53.4535 51.3684 53.3687 51.3333 53.2802 51.3333C53.1917 51.3333 53.1069 51.3684 53.0443 51.4309C52.9818 51.4935 52.9466 51.5782 52.9466 51.6666C52.9466 51.7551 52.9818 51.8398 53.0443 51.9023C53.1069 51.9649 53.1917 52 53.2802 52C53.3687 52 53.4535 51.9649 53.5161 51.9023C53.5787 51.8398 53.6138 51.7551 53.6138 51.6666Z" fill="#151875"/>
<path d="M59.285 51.6666C59.285 52.0203 59.1444 52.3594 58.8942 52.6095C58.6439 52.8595 58.3045 53 57.9506 53C57.5967 53 57.2573 52.8595 57.0071 52.6095C56.7568 52.3594 56.6162 52.0203 56.6162 51.6666C56.6162 51.313 56.7568 50.9739 57.0071 50.7238C57.2573 50.4738 57.5967 50.3333 57.9506 50.3333C58.3045 50.3333 58.6439 50.4738 58.8942 50.7238C59.1444 50.9739 59.285 51.313 59.285 51.6666ZM58.2842 51.6666C58.2842 51.5782 58.2491 51.4935 58.1865 51.4309C58.124 51.3684 58.0391 51.3333 57.9506 51.3333C57.8621 51.3333 57.7773 51.3684 57.7147 51.4309C57.6522 51.4935 57.617 51.5782 57.617 51.6666C57.617 51.7551 57.6522 51.8398 57.7147 51.9023C57.7773 51.9649 57.8621 52 57.9506 52C58.0391 52 58.124 51.9649 58.1865 51.9023C58.2491 51.8398 58.2842 51.7551 58.2842 51.6666Z" fill="#151875"/>
</g>
<defs>
<filter id="filter0_d_1119_260" x="0.269531" y="0" width="110.024" height="110" filterUnits="userSpaceOnUse" color-interpolation-filters="sRGB">
<feFlood flood-opacity="0" result="BackgroundImageFix"/>
<feColorMatrix in="SourceAlpha" type="matrix" values="0 0 0 0 0 0 0 0 0 0 0 0 0 0 0 0 0 0 127 0" result="hardAlpha"/>
<feOffset dy="8"/>
<feGaussianBlur stdDeviation="20"/>
<feColorMatrix type="matrix" values="0 0 0 0 0.192157 0 0 0 0 0.12549 0 0 0 0 0.541176 0 0 0 0.05 0"/>
<feBlend mode="normal" in2="BackgroundImageFix" result="effect1_dropShadow_1119_260"/>
<feBlend mode="normal" in="SourceGraphic" in2="effect1_dropShadow_1119_260" result="shape"/>
</filter>
<filter id="filter1_d_1119_260" x="0.269531" y="0" width="110.024" height="110" filterUnits="userSpaceOnUse" color-interpolation-filters="sRGB">
<feFlood flood-opacity="0" result="BackgroundImageFix"/>
<feColorMatrix in="SourceAlpha" type="matrix" values="0 0 0 0 0 0 0 0 0 0 0 0 0 0 0 0 0 0 127 0" result="hardAlpha"/>
<feOffset dy="8"/>
<feGaussianBlur stdDeviation="20"/>
<feColorMatrix type="matrix" values="0 0 0 0 0.192157 0 0 0 0 0.12549 0 0 0 0 0.541176 0 0 0 0.05 0"/>
<feBlend mode="normal" in2="BackgroundImageFix" result="effect1_dropShadow_1119_260"/>
<feBlend mode="normal" in="SourceGraphic" in2="effect1_dropShadow_1119_260" result="shape"/>
</filter>
</defs>
</svg>
