<svg width="17" height="16" viewBox="0 0 17 16" fill="none" xmlns="http://www.w3.org/2000/svg">
<path d="M13.726 3.07335C13.0176 2.36536 12.0785 1.9349 11.0794 1.86027C10.0802 1.78564 9.08746 2.07179 8.28161 2.66668C7.4327 2.03578 6.37607 1.74969 5.32451 1.86604C4.27295 1.98239 3.30456 2.49254 2.61436 3.29374C1.92416 4.09495 1.56341 5.1277 1.60476 6.18403C1.64611 7.24036 2.0865 8.2418 2.83722 8.98668L7.8079 13.9534C7.86992 14.0158 7.94372 14.0654 8.02502 14.0993C8.10633 14.1331 8.19353 14.1505 8.28161 14.1505C8.36969 14.1505 8.4569 14.1331 8.5382 14.0993C8.61951 14.0654 8.6933 14.0158 8.75533 13.9534L13.726 8.98668C14.1148 8.5985 14.4231 8.13758 14.6335 7.63026C14.8439 7.12294 14.9522 6.57917 14.9522 6.03002C14.9522 5.48086 14.8439 4.93709 14.6335 4.42977C14.4231 3.92246 14.1148 3.46154 13.726 3.07335ZM12.7852 8.04668L8.28161 12.54L3.77798 8.04668C3.38111 7.64848 3.11076 7.14205 3.00084 6.59091C2.89092 6.03977 2.94633 5.46847 3.16012 4.94868C3.3739 4.42889 3.73655 3.98375 4.20255 3.6691C4.66856 3.35445 5.21718 3.18431 5.77959 3.18002C6.53094 3.18186 7.25085 3.48158 7.78121 4.01335C7.84323 4.07584 7.91703 4.12543 7.99833 4.15928C8.07964 4.19313 8.16685 4.21055 8.25492 4.21055C8.343 4.21055 8.43021 4.19313 8.51152 4.15928C8.59282 4.12543 8.66661 4.07584 8.72864 4.01335C9.27463 3.54061 9.97998 3.29278 10.7019 3.32003C11.4239 3.34729 12.1085 3.64758 12.6172 4.16014C13.126 4.6727 13.4208 5.35924 13.4421 6.08081C13.4634 6.80238 13.2095 7.50508 12.7319 8.04668H12.7852Z" fill="#151875"/>
</svg>
