<svg width="17" height="16" viewBox="0 0 17 16" fill="none" xmlns="http://www.w3.org/2000/svg">
<path d="M10.2833 6.66666H8.2817V4.66666C8.2817 4.48985 8.2114 4.32028 8.08628 4.19526C7.96115 4.07024 7.79145 4 7.61449 4C7.43754 4 7.26783 4.07024 7.14271 4.19526C7.01758 4.32028 6.94729 4.48985 6.94729 4.66666V6.66666H4.94567C4.76872 6.66666 4.59901 6.7369 4.47389 6.86193C4.34876 6.98695 4.27847 7.15652 4.27847 7.33333C4.27847 7.51014 4.34876 7.67971 4.47389 7.80473C4.59901 7.92976 4.76872 8 4.94567 8H6.94729V10C6.94729 10.1768 7.01758 10.3464 7.14271 10.4714C7.26783 10.5964 7.43754 10.6667 7.61449 10.6667C7.79145 10.6667 7.96115 10.5964 8.08628 10.4714C8.2114 10.3464 8.2817 10.1768 8.2817 10V8H10.2833C10.4603 8 10.63 7.92976 10.7551 7.80473C10.8802 7.67971 10.9505 7.51014 10.9505 7.33333C10.9505 7.15652 10.8802 6.98695 10.7551 6.86193C10.63 6.7369 10.4603 6.66666 10.2833 6.66666ZM14.7603 13.5267L12.2849 11.0733C13.2458 9.87627 13.7111 8.35686 13.5852 6.82753C13.4593 5.2982 12.7517 3.87519 11.6081 2.85109C10.4644 1.827 8.97146 1.27967 7.4363 1.32164C5.90113 1.36362 4.44041 1.99171 3.35448 3.07676C2.26855 4.16181 1.63996 5.62136 1.59795 7.15528C1.55594 8.6892 2.10372 10.1809 3.12864 11.3237C4.15355 12.4664 5.57772 13.1734 7.10828 13.2992C8.63885 13.425 10.1595 12.9601 11.3575 12L13.8128 14.4533C13.8749 14.5158 13.9486 14.5654 14.0299 14.5993C14.1113 14.6331 14.1985 14.6505 14.2865 14.6505C14.3746 14.6505 14.4618 14.6331 14.5431 14.5993C14.6244 14.5654 14.6982 14.5158 14.7603 14.4533C14.8805 14.329 14.9477 14.1629 14.9477 13.99C14.9477 13.8171 14.8805 13.651 14.7603 13.5267ZM7.61449 12C6.69077 12 5.78779 11.7263 5.01974 11.2135C4.25169 10.7007 3.65307 9.97191 3.29957 9.11919C2.94608 8.26646 2.85359 7.32815 3.0338 6.42291C3.21401 5.51766 3.65882 4.68614 4.312 4.0335C4.96517 3.38085 5.79736 2.9364 6.70334 2.75633C7.60931 2.57627 8.54838 2.66868 9.40179 3.02189C10.2552 3.3751 10.9846 3.97324 11.4978 4.74067C12.011 5.5081 12.2849 6.41035 12.2849 7.33333C12.2849 8.57101 11.7929 9.75799 10.917 10.6332C10.0411 11.5083 8.85317 12 7.61449 12Z" fill="#151875"/>
</svg>
